<svg width="24" height="24" viewBox="0 0 24 24" fill="none" xmlns="http://www.w3.org/2000/svg">
<g id="bolt">
<mask id="mask0_1460_2345" style="mask-type:alpha" maskUnits="userSpaceOnUse" x="0" y="0" width="24" height="24">
<rect id="Bounding box" width="24" height="24" fill="#D9D9D9"/>
</mask>
<g mask="url(#mask0_1460_2345)">
<path id="bolt_2" d="M10.6741 21C10.4908 21 10.3408 20.9333 10.2241 20.8C10.1075 20.6667 10.0658 20.5083 10.0991 20.325L10.9991 14H7.49914C7.24914 14 7.09481 13.9333 7.03614 13.8C6.97814 13.6667 7.01581 13.4833 7.14914 13.25L12.8491 3.275C12.8825 3.19167 12.9491 3.125 13.0491 3.075C13.1491 3.025 13.2408 3 13.3241 3C13.5075 3 13.6575 3.06667 13.7741 3.2C13.8908 3.33333 13.9325 3.49167 13.8991 3.675L12.9991 10H16.4991C16.7491 10 16.9031 10.0667 16.9611 10.2C17.0198 10.3333 16.9825 10.5167 16.8491 10.75L11.1491 20.725C11.1158 20.8083 11.0491 20.875 10.9491 20.925C10.8491 20.975 10.7575 21 10.6741 21Z" fill="black" fill-opacity="0.6"/>
</g>
</g>
</svg>
