<svg width="24" height="24" viewBox="0 0 24 24" fill="none" xmlns="http://www.w3.org/2000/svg">
<g id="fire_truck">
<mask id="mask0_1460_2334" style="mask-type:alpha" maskUnits="userSpaceOnUse" x="0" y="0" width="24" height="24">
<rect id="Bounding box" width="24" height="24" fill="#D9D9D9"/>
</mask>
<g mask="url(#mask0_1460_2334)">
<path id="fire_truck_2" d="M7.00098 21C6.16764 21 5.45931 20.7083 4.87598 20.125C4.29264 19.5417 4.00098 18.8333 4.00098 18H3.00098C2.45098 18 1.98031 17.8043 1.58898 17.413C1.19698 17.021 1.00098 16.55 1.00098 16V11H12.001V7C12.001 6.45 12.197 5.97933 12.589 5.588C12.9803 5.196 13.451 5 14.001 5H16.001V4C16.001 3.71667 16.097 3.479 16.289 3.287C16.4803 3.09567 16.7176 3 17.001 3H18.001C18.2843 3 18.5216 3.09567 18.713 3.287C18.905 3.479 19.001 3.71667 19.001 4V5H19.551C19.9843 5 20.376 5.125 20.726 5.375C21.076 5.625 21.3176 5.95833 21.451 6.375L22.901 10.675C22.9343 10.775 22.9593 10.879 22.976 10.987C22.9926 11.0957 23.001 11.2083 23.001 11.325V18H20.001C20.001 18.8333 19.7093 19.5417 19.126 20.125C18.5426 20.7083 17.8343 21 17.001 21C16.1676 21 15.4593 20.7083 14.876 20.125C14.2926 19.5417 14.001 18.8333 14.001 18H10.001C10.001 18.8333 9.70931 19.5417 9.12598 20.125C8.54264 20.7083 7.83431 21 7.00098 21ZM7.00098 19C7.28431 19 7.52198 18.904 7.71398 18.712C7.90531 18.5207 8.00098 18.2833 8.00098 18C8.00098 17.7167 7.90531 17.4793 7.71398 17.288C7.52198 17.096 7.28431 17 7.00098 17C6.71764 17 6.47998 17.096 6.28798 17.288C6.09664 17.4793 6.00098 17.7167 6.00098 18C6.00098 18.2833 6.09664 18.5207 6.28798 18.712C6.47998 18.904 6.71764 19 7.00098 19ZM17.001 19C17.2843 19 17.5216 18.904 17.713 18.712C17.905 18.5207 18.001 18.2833 18.001 18C18.001 17.7167 17.905 17.4793 17.713 17.288C17.5216 17.096 17.2843 17 17.001 17C16.7176 17 16.4803 17.096 16.289 17.288C16.097 17.4793 16.001 17.7167 16.001 18C16.001 18.2833 16.097 18.5207 16.289 18.712C16.4803 18.904 16.7176 19 17.001 19ZM3.00098 13V16H4.77598C5.05931 15.6833 5.39264 15.4373 5.77598 15.262C6.15931 15.0873 6.56764 15 7.00098 15C7.43431 15 7.84264 15.0873 8.22598 15.262C8.60931 15.4373 8.94264 15.6833 9.22598 16H12.001V13H3.00098ZM14.001 16H14.776C15.0593 15.6833 15.3926 15.4373 15.776 15.262C16.1593 15.0873 16.5676 15 17.001 15C17.4343 15 17.8426 15.0873 18.226 15.262C18.6093 15.4373 18.9426 15.6833 19.226 16H21.001V13H14.001V16ZM14.001 11H20.901L19.551 7H14.001V11ZM1.00098 10V8.5H2.00098V6.5H1.00098V5H11.001V6.5H10.001V8.5H11.001V10H1.00098ZM3.50098 8.5H5.25098V6.5H3.50098V8.5ZM6.75098 8.5H8.50098V6.5H6.75098V8.5Z" fill="black" fill-opacity="0.6"/>
</g>
</g>
</svg>
