<svg width="64" height="64" viewBox="0 0 64 64" fill="none" xmlns="http://www.w3.org/2000/svg">
<rect width="64" height="64" rx="16" fill="#334790"/>
<path d="M8.83398 53.313L12.4962 49.9088M45.4559 19.2713L51.3154 13.8246M48.6178 10.1882L54.7453 16.7802M21.2597 42.4454L23.9831 45.3752M22.7245 41.0838L25.4479 44.0135M41.7679 23.3821L44.4912 26.3118M24.1895 39.7221L26.9128 42.6519M25.6543 38.3605L28.3776 41.2902M27.1191 36.9988L29.8424 39.9285M30.0489 34.2755L32.7722 37.2052M31.5138 32.9138L34.2371 35.8435M32.9787 31.5521L35.702 34.4819M28.5841 35.6371L31.3074 38.5668M34.4434 30.1904L37.1668 33.1202M37.3733 27.4671L40.0966 30.3969M38.8381 26.1055L41.5615 29.0352M40.303 24.7438L43.0264 27.6735M35.9085 28.8288L38.6318 31.7585M23.5652 47.1289L47.0032 25.3422C48.2167 24.2141 48.286 22.3159 47.158 21.1024L43.7538 17.4402C42.6258 16.2266 40.7275 16.1573 39.514 17.2854L16.076 39.0721C14.8625 40.2002 14.7932 42.0984 15.9212 43.3119L19.3254 46.9741C20.4534 48.1876 22.3517 48.257 23.5652 47.1289ZM11.475 48.8102L16.602 44.0443L18.6445 46.2416L13.5175 51.0075L11.475 48.8102Z" stroke="white"/>
</svg>
