<svg width="64" height="64" viewBox="0 0 64 64" fill="none" xmlns="http://www.w3.org/2000/svg">
<rect width="64" height="64" rx="16" fill="#334790"/>
<mask id="mask0_1_1235" style="mask-type:alpha" maskUnits="userSpaceOnUse" x="12" y="13" width="38" height="38">
<rect x="12" y="13" width="38" height="38" fill="#D9D9D9"/>
</mask>
<g mask="url(#mask0_1_1235)">
<path d="M22.2037 39.6516C21.7369 39.3918 21.371 39.0412 21.1061 38.6C20.8412 38.1587 20.7087 37.6638 20.7087 37.1153V30.246L17.5482 28.4983C17.2884 28.3501 17.0976 28.1699 16.9758 27.9575C16.854 27.7451 16.7931 27.5091 16.7931 27.2495C16.7931 26.99 16.854 26.7541 16.9758 26.542C17.0976 26.3299 17.2884 26.1497 17.5482 26.0016L29.6371 19.4149C29.8517 19.2956 30.0727 19.208 30.3001 19.1522C30.5275 19.0963 30.7609 19.0684 31.0003 19.0684C31.2397 19.0684 31.4731 19.0963 31.7006 19.1522C31.928 19.208 32.1492 19.2954 32.3642 19.4145L46.0175 26.845C46.2611 26.9769 46.4479 27.1554 46.5778 27.3804C46.7077 27.6053 46.7726 27.8481 46.7726 28.1086V37.4502C46.7726 37.7866 46.6588 38.0687 46.4311 38.2963C46.2034 38.5239 45.9212 38.6377 45.5847 38.6377C45.248 38.6377 44.9661 38.5239 44.7387 38.2963C44.5114 38.0687 44.3977 37.7866 44.3977 37.4502V28.5653L41.292 30.246V37.1153C41.292 37.6638 41.1595 38.1587 40.8946 38.6C40.6297 39.0412 40.2638 39.3918 39.7969 39.6516L32.3675 43.6678C32.1503 43.7895 31.928 43.8784 31.7006 43.9342C31.4731 43.99 31.2397 44.0179 31.0003 44.0179C30.7609 44.0179 30.5275 43.99 30.3001 43.9342C30.0727 43.8784 29.8504 43.7895 29.6332 43.6678L22.2037 39.6516ZM30.8176 33.0169C30.8887 33.0575 30.9521 33.0778 31.0079 33.0778C31.0638 33.0778 31.1272 33.0575 31.1983 33.0169L41.8309 27.2499L31.1983 21.4982C31.1272 21.4576 31.0638 21.4373 31.0079 21.4373C30.9521 21.4373 30.8887 21.4576 30.8176 21.4982L20.1697 27.2499L30.8176 33.0169ZM30.8024 41.6125C30.8735 41.6531 30.9394 41.6734 31.0003 41.6734C31.0612 41.6734 31.1272 41.6531 31.1983 41.6125L38.6886 37.5659C38.7698 37.5152 38.8282 37.4568 38.8637 37.3908C38.8992 37.3248 38.917 37.2411 38.917 37.1396V31.5127L32.3919 35.0965C32.1746 35.2183 31.9493 35.3071 31.7159 35.3629C31.4825 35.4187 31.2439 35.4467 31.0003 35.4467C30.7567 35.4467 30.5182 35.4187 30.2848 35.3629C30.0514 35.3071 29.826 35.2183 29.6088 35.0965L23.0837 31.5127V37.1396C23.0837 37.2208 23.1014 37.2995 23.137 37.3756C23.1725 37.4517 23.2309 37.5152 23.3121 37.5659L30.8024 41.6125Z" fill="white"/>
</g>
</svg>
