<svg width="64" height="64" viewBox="0 0 64 64" fill="none" xmlns="http://www.w3.org/2000/svg">
<rect width="64" height="64" rx="16" fill="#334790"/>
<path d="M34.25 28.625C34.25 28.3266 34.3685 28.0405 34.5795 27.8295C34.7905 27.6185 35.0766 27.5 35.375 27.5H42.125C42.4234 27.5 42.7095 27.6185 42.9205 27.8295C43.1315 28.0405 43.25 28.3266 43.25 28.625C43.25 28.9234 43.1315 29.2095 42.9205 29.4205C42.7095 29.6315 42.4234 29.75 42.125 29.75H35.375C35.0766 29.75 34.7905 29.6315 34.5795 29.4205C34.3685 29.2095 34.25 28.9234 34.25 28.625ZM35.375 33.125C35.0766 33.125 34.7905 33.2435 34.5795 33.4545C34.3685 33.6655 34.25 33.9516 34.25 34.25C34.25 34.5484 34.3685 34.8345 34.5795 35.0455C34.7905 35.2565 35.0766 35.375 35.375 35.375H42.125C42.4234 35.375 42.7095 35.2565 42.9205 35.0455C43.1315 34.8345 43.25 34.5484 43.25 34.25C43.25 33.9516 43.1315 33.6655 42.9205 33.4545C42.7095 33.2435 42.4234 33.125 42.125 33.125H35.375ZM28.625 28.625C28.625 29.2217 28.3879 29.794 27.966 30.216C27.544 30.6379 26.9717 30.875 26.375 30.875C25.7783 30.875 25.206 30.6379 24.784 30.216C24.3621 29.794 24.125 29.2217 24.125 28.625C24.125 28.0283 24.3621 27.456 24.784 27.034C25.206 26.6121 25.7783 26.375 26.375 26.375C26.9717 26.375 27.544 26.6121 27.966 27.034C28.3879 27.456 28.625 28.0283 28.625 28.625ZM21.875 33.6875C21.875 33.2399 22.0528 32.8107 22.3693 32.4943C22.6857 32.1778 23.1149 32 23.5625 32H29.1875C29.6351 32 30.0643 32.1778 30.3807 32.4943C30.6972 32.8107 30.875 33.2399 30.875 33.6875C30.875 33.6875 30.875 37.625 26.375 37.625C21.875 37.625 21.875 33.6875 21.875 33.6875ZM16.25 22.1562C16.25 21.1866 16.6352 20.2566 17.3209 19.5709C18.0066 18.8852 18.9366 18.5 19.9062 18.5H44.0938C45.0634 18.5 45.9934 18.8852 46.6791 19.5709C47.3648 20.2566 47.75 21.1866 47.75 22.1562V41.8438C47.75 42.3239 47.6554 42.7993 47.4717 43.2429C47.2879 43.6865 47.0186 44.0896 46.6791 44.4291C46.3396 44.7686 45.9365 45.0379 45.4929 45.2217C45.0493 45.4054 44.5739 45.5 44.0938 45.5H19.9062C19.4261 45.5 18.9507 45.4054 18.5071 45.2217C18.0635 45.0379 17.6604 44.7686 17.3209 44.4291C16.9814 44.0896 16.7121 43.6865 16.5283 43.2429C16.3446 42.7993 16.25 42.3239 16.25 41.8438V22.1562ZM19.9062 20.75C19.13 20.75 18.5 21.38 18.5 22.1562V41.8438C18.5 42.62 19.13 43.25 19.9062 43.25H44.0938C44.87 43.25 45.5 42.62 45.5 41.8438V22.1562C45.5 21.38 44.87 20.75 44.0938 20.75H19.9062Z" fill="white"/>
</svg>
