<svg width="64" height="64" viewBox="0 0 64 64" fill="none" xmlns="http://www.w3.org/2000/svg">
<rect width="64" height="64" rx="16" fill="#334790"/>
<path d="M40.056 23.944C39 22.8829 37.7446 22.0412 36.362 21.4673C34.9794 20.8934 33.497 20.5986 32 20.6V32L23.944 40.056C28.39 44.502 35.61 44.502 40.075 40.056C41.1331 38.9976 41.9721 37.7409 42.5439 36.3579C43.1157 34.9749 43.4091 33.4926 43.4073 31.9961C43.4056 30.4995 43.1087 29.0179 42.5336 27.6363C41.9585 26.2546 41.1166 24.9999 40.056 23.944ZM32 13C21.512 13 13 21.512 13 32C13 42.488 21.512 51 32 51C42.488 51 51 42.488 51 32C51 21.512 42.488 13 32 13ZM32 47.2C23.602 47.2 16.8 40.398 16.8 32C16.8 23.602 23.602 16.8 32 16.8C40.398 16.8 47.2 23.602 47.2 32C47.2 40.398 40.398 47.2 32 47.2Z" fill="white"/>
</svg>
