<svg width="64" height="64" viewBox="0 0 64 64" fill="none" xmlns="http://www.w3.org/2000/svg">
<rect width="64" height="64" rx="16" fill="#334790"/>
<mask id="mask0_1_2" style="mask-type:alpha" maskUnits="userSpaceOnUse" x="13" y="11" width="38" height="38">
<rect x="13" y="11" width="38" height="38" fill="#D9D9D9"/>
</mask>
<g mask="url(#mask0_1_2)">
<path d="M24.7562 26.0021L30.6542 16.3833C30.8125 16.1194 31.0104 15.9281 31.2479 15.8094C31.4854 15.6906 31.7361 15.6312 32 15.6312C32.2639 15.6312 32.5146 15.6906 32.7521 15.8094C32.9896 15.9281 33.1875 16.1194 33.3458 16.3833L39.2437 26.0021C39.4021 26.266 39.4812 26.543 39.4812 26.8333C39.4812 27.1236 39.4153 27.3875 39.2833 27.625C39.1514 27.8625 38.9667 28.0538 38.7292 28.1989C38.4917 28.3441 38.2146 28.4166 37.8979 28.4166H26.1021C25.7854 28.4166 25.5083 28.3441 25.2708 28.1989C25.0333 28.0538 24.8486 27.8625 24.7167 27.625C24.5847 27.3875 24.5187 27.1236 24.5187 26.8333C24.5187 26.543 24.5979 26.266 24.7562 26.0021ZM40.7083 45.8333C38.7292 45.8333 37.0469 45.1406 35.6615 43.7552C34.276 42.3698 33.5833 40.6875 33.5833 38.7083C33.5833 36.7291 34.276 35.0469 35.6615 33.6614C37.0469 32.276 38.7292 31.5833 40.7083 31.5833C42.6875 31.5833 44.3698 32.276 45.7552 33.6614C47.1406 35.0469 47.8333 36.7291 47.8333 38.7083C47.8333 40.6875 47.1406 42.3698 45.7552 43.7552C44.3698 45.1406 42.6875 45.8333 40.7083 45.8333ZM17.75 43.4583V33.9583C17.75 33.5097 17.9017 33.1337 18.2052 32.8302C18.5087 32.5267 18.8847 32.375 19.3333 32.375H28.8333C29.2819 32.375 29.658 32.5267 29.9615 32.8302C30.2649 33.1337 30.4167 33.5097 30.4167 33.9583V43.4583C30.4167 43.9069 30.2649 44.283 29.9615 44.5864C29.658 44.8899 29.2819 45.0416 28.8333 45.0416H19.3333C18.8847 45.0416 18.5087 44.8899 18.2052 44.5864C17.9017 44.283 17.75 43.9069 17.75 43.4583Z" fill="white"/>
</g>
</svg>
