<svg width="64" height="64" viewBox="0 0 64 64" fill="none" xmlns="http://www.w3.org/2000/svg">
<rect width="64" height="64" rx="16" fill="#334790"/>
<path d="M37.2827 20.5023C39.3142 18.4623 42.2864 18.4198 43.9311 20.0716C45.5801 21.7263 45.5362 24.7183 43.5019 26.7583L40.0693 30.2051C39.876 30.4057 39.7693 30.6743 39.7721 30.9529C39.7749 31.2314 39.887 31.4978 40.0843 31.6945C40.2816 31.8912 40.5482 32.0026 40.8268 32.0046C41.1054 32.0066 41.3737 31.8991 41.5738 31.7053L45.0078 28.2586C47.715 25.54 48.055 21.2007 45.437 18.5714C42.8162 15.9406 38.4855 16.2835 35.7754 19.0021L28.9102 25.897C26.203 28.6156 25.863 32.9548 28.481 35.5827C28.5787 35.6844 28.6958 35.7656 28.8253 35.8216C28.9548 35.8775 29.0941 35.9072 29.2352 35.9087C29.3762 35.9103 29.5162 35.8837 29.6469 35.8306C29.7776 35.7775 29.8964 35.6989 29.9964 35.5993C30.0963 35.4998 30.1755 35.3814 30.2292 35.251C30.283 35.1205 30.3102 34.9807 30.3093 34.8396C30.3084 34.6986 30.2795 34.5591 30.2241 34.4293C30.1687 34.2996 30.0881 34.1821 29.9869 34.0839C28.3379 32.4292 28.3832 29.4372 30.4161 27.3972L37.2827 20.5023Z" fill="white"/>
<path d="M35.5204 28.4158C35.3212 28.2161 35.0509 28.1037 34.7689 28.1033C34.4869 28.1029 34.2163 28.2145 34.0166 28.4137C33.8169 28.6128 33.7045 28.8831 33.7041 29.1651C33.7037 29.4471 33.8153 29.7178 34.0145 29.9174C35.6635 31.5721 35.6195 34.5627 33.5852 36.6041L26.7186 43.4976C24.6857 45.5376 21.7135 45.5801 20.0688 43.9283C18.4198 42.2736 18.4651 39.2816 20.498 37.2416L23.932 33.7949C24.0306 33.696 24.1086 33.5787 24.1618 33.4496C24.215 33.3206 24.2422 33.1823 24.2419 33.0427C24.2417 32.9032 24.2139 32.765 24.1603 32.6362C24.1066 32.5073 24.0281 32.3903 23.9292 32.2918C23.8303 32.1933 23.713 32.1152 23.584 32.062C23.4549 32.0089 23.3167 31.9816 23.1771 31.9819C23.0375 31.9822 22.8994 32.0099 22.7705 32.0636C22.6417 32.1172 22.5246 32.1957 22.4261 32.2946L18.9921 35.7414C16.2849 38.4614 15.9449 42.7992 18.5629 45.4285C21.1837 48.0607 25.5145 47.7164 28.2245 44.9979L35.0911 38.1029C37.7984 35.3858 38.1384 31.0437 35.5204 28.4158Z" fill="white"/>
</svg>
