<svg width="64" height="64" viewBox="0 0 64 64" fill="none" xmlns="http://www.w3.org/2000/svg">
<rect width="64" height="64" rx="16" fill="#334790"/>
<mask id="mask0_1_1151" style="mask-type:luminance" maskUnits="userSpaceOnUse" x="17" y="19" width="30" height="26">
<path d="M29.3333 22.6667H45.3333M29.3333 32H45.3333M29.3333 41.3334H45.3333" stroke="white" stroke-width="2" stroke-linecap="round" stroke-linejoin="round"/>
<path d="M21.3333 34.6667C22.8061 34.6667 24 33.4728 24 32C24 30.5273 22.8061 29.3334 21.3333 29.3334C19.8605 29.3334 18.6666 30.5273 18.6666 32C18.6666 33.4728 19.8605 34.6667 21.3333 34.6667Z" fill="white" stroke="white" stroke-linecap="round" stroke-linejoin="round"/>
<path d="M21.3333 44C22.8061 44 24 42.8061 24 41.3334C24 39.8606 22.8061 38.6667 21.3333 38.6667C19.8605 38.6667 18.6666 39.8606 18.6666 41.3334C18.6666 42.8061 19.8605 44 21.3333 44Z" fill="white" stroke="white" stroke-linecap="round" stroke-linejoin="round"/>
<path d="M18.6666 22.6667L20.6666 24.6667L24.6666 20.6667" stroke="white" stroke-width="2" stroke-linecap="round" stroke-linejoin="round"/>
</mask>
<g mask="url(#mask0_1_1151)">
<path d="M16 16H48V48H16V16Z" fill="white"/>
</g>
</svg>
