<svg width="64" height="64" viewBox="0 0 64 64" fill="none" xmlns="http://www.w3.org/2000/svg">
<rect width="64" height="64" rx="16" fill="#334790"/>
<path d="M54 22.3364V44.9369L34.0611 43.7162L33 43.6512V44.6907C32.9993 44.697 32.9978 44.7074 32.9952 44.7207C32.9869 44.7627 32.9717 44.8085 32.9494 44.846C32.9309 44.877 32.9078 44.9033 32.8659 44.9268C32.823 44.9508 32.71 45 32.4707 45C32.2301 45 32.1254 44.9505 32.0936 44.9322C32.064 44.9152 32.0503 44.8985 32.0381 44.8762C32.0215 44.8461 32.0094 44.8057 32.0032 44.7652C32.0014 44.7529 32.0005 44.7432 32 44.7372L32.0509 43.6481L30.9389 43.7162L12.2003 44.8634L13.3957 44.3469L13.3959 44.3469L13.3962 44.3467L13.3966 44.3466L13.397 44.3464L13.4059 44.3426L13.4494 44.3246C13.4896 44.308 13.5522 44.2827 13.6365 44.2498C13.8052 44.1841 14.0606 44.0882 14.3972 43.9722C15.0705 43.7401 16.068 43.4275 17.3453 43.114C19.9006 42.4868 23.5698 41.8571 28 41.8571C29.1785 41.8571 29.5913 42.3191 29.7758 42.6406C29.888 42.836 29.9465 43.0406 29.9755 43.2028C29.9897 43.2819 29.9957 43.3451 29.9983 43.3838C29.9995 43.4022 29.9999 43.4146 30 43.4198V43.4286L31.9998 43.4474L31 43.4286C31.9998 43.4474 31.9998 43.4468 31.9998 43.4462L31.9999 43.4449L31.9999 43.4422L32 43.4361L32 43.4286L32 43.4209C32 43.4171 32 43.413 32 43.4086V24.1429V23.6829L31.6508 23.3836L31 24.1429C31.6508 23.3836 31.6506 23.3834 31.6504 23.3833L31.6499 23.3829L31.6488 23.3819L31.6456 23.3792L31.6361 23.3711L31.604 23.3443C31.577 23.3219 31.5387 23.2905 31.4899 23.2515C31.3924 23.1735 31.2526 23.0646 31.0765 22.9352C30.725 22.677 30.2239 22.3333 29.6211 21.9889C28.441 21.3145 26.7585 20.5714 25 20.5714C21.9352 20.5714 18.8842 20.8992 16.6086 21.2243C15.4684 21.3872 14.5177 21.5502 13.8506 21.6727C13.5524 21.7275 13.3107 21.7742 13.1338 21.8093C13.8658 21.6389 14.7106 21.4524 15.6352 21.266C18.7975 20.6282 22.8475 20 26.5 20C27.7415 20 29.059 20.5426 30.1289 21.154C30.6511 21.4524 31.0875 21.7516 31.3923 21.9755C31.5442 22.0872 31.6622 22.1792 31.7405 22.2418C31.7797 22.2731 31.8088 22.297 31.8271 22.3122L31.8465 22.3284L31.8492 22.3307L31.8495 22.331L31.8498 22.3312L31.85 22.3314L31.8501 22.3315L32.5 22.8885L33.1499 22.3315L33.15 22.3314L33.1502 22.3312L33.1505 22.331L33.1508 22.3307L33.1535 22.3284L33.1729 22.3122C33.1912 22.297 33.2203 22.2731 33.2595 22.2418C33.3378 22.1792 33.4558 22.0872 33.6077 21.9755C33.9125 21.7516 34.3489 21.4524 34.8711 21.154C35.941 20.5426 37.2585 20 38.5 20C42.1525 20 46.2025 20.6282 49.3648 21.266C50.9404 21.5837 52.2843 21.9015 53.2332 22.1396C53.529 22.2138 53.7863 22.2802 54 22.3364ZM12 44.8757L11 44.9369V22.3364C11.2137 22.2802 11.471 22.2138 11.7668 22.1396C11.8421 22.1207 11.9198 22.1013 12 22.0815V22.8571V43.4286V44.8757ZM12.7928 21.8894C12.8005 21.9257 12.8361 22.0922 13 22.8571L12.7926 21.8894C12.7927 21.8894 12.7927 21.8894 12.7928 21.8894ZM51.7279 43.1051L51.7284 43.1053L51.7288 43.1054L51.7291 43.1055L51.7293 43.1055L53 43.4648V42.1429V24.1429V23.4835L52.3939 23.2237L52 24.1429C52.3939 23.2237 52.3937 23.2236 52.3935 23.2235L52.393 23.2233L52.3915 23.2227L52.3869 23.2207L52.3712 23.2141L52.3143 23.1903C52.2651 23.1699 52.1938 23.1407 52.1019 23.1039C51.918 23.0303 51.6513 22.9265 51.3136 22.8024C50.6385 22.5544 49.6774 22.2249 48.5247 21.8956C46.2294 21.2398 43.1296 20.5714 40 20.5714C38.2415 20.5714 36.559 21.3145 35.3789 21.9889C34.7761 22.3333 34.275 22.677 33.9235 22.9352C33.7474 23.0646 33.6076 23.1735 33.5101 23.2515C33.4613 23.2905 33.423 23.3219 33.396 23.3443L33.3639 23.3711L33.3544 23.3792L33.3512 23.3819L33.3501 23.3829L33.3496 23.3833C33.3494 23.3834 33.3492 23.3836 34 24.1429L33.3492 23.3836L33 23.6829V24.1429V43.4286L34.9674 43.4644C34.9993 43.4657 34.9993 43.4659 34.9993 43.4661L34.9993 43.4671L34.9992 43.469L34.999 43.4721L34.9989 43.4758L34.9988 43.4765C34.9988 43.4765 34.9989 43.4755 34.999 43.4736C34.9994 43.468 35.0005 43.4546 35.0029 43.4345C35.0077 43.3939 35.0173 43.3282 35.0357 43.2461C35.0734 43.0783 35.1432 42.8642 35.2671 42.6583C35.4801 42.3041 35.9115 41.8571 37 41.8571C42.1856 41.8571 45.8919 42.176 48.2895 42.4915C49.4883 42.6492 50.36 42.806 50.9259 42.9217C51.2089 42.9795 51.4154 43.0271 51.5482 43.0594C51.6146 43.0755 51.6625 43.0878 51.6924 43.0956L51.7236 43.1039L51.7279 43.1051ZM26.6066 27H17.3934C17.6385 26.7154 18.0906 26.4286 19 26.4286H25C25.9094 26.4286 26.3615 26.7154 26.6066 27ZM26.6066 32.1429H17.3934C17.6385 31.8582 18.0906 31.5714 19 31.5714H25C25.9094 31.5714 26.3615 31.8582 26.6066 32.1429ZM26.6066 37.2857H17.3934C17.6385 37.0011 18.0906 36.7143 19 36.7143H25C25.9094 36.7143 26.3615 37.0011 26.6066 37.2857ZM47.6066 27H38.3934C38.6385 26.7154 39.0906 26.4286 40 26.4286H46C46.9094 26.4286 47.3615 26.7154 47.6066 27ZM47.6066 32.1429H38.3934C38.6385 31.8582 39.0906 31.5714 40 31.5714H46C46.9094 31.5714 47.3615 31.8582 47.6066 32.1429ZM47.6066 37.2857H38.3934C38.6385 37.0011 39.0906 36.7143 40 36.7143H46C46.9094 36.7143 47.3615 37.0011 47.6066 37.2857Z" fill="white" stroke="white" stroke-width="2"/>
</svg>
