<svg width="40" height="36" viewBox="0 0 40 36" fill="none" xmlns="http://www.w3.org/2000/svg">
<path d="M31.452 20.04L24 26H14V24H22.13C22.3109 23.9999 22.4884 23.9508 22.6435 23.8578C22.7987 23.7648 22.9257 23.6315 23.0111 23.472C23.0965 23.3125 23.137 23.1329 23.1283 22.9522C23.1197 22.7715 23.0622 22.5966 22.962 22.446L21.186 19.782C20.8217 19.2336 20.3273 18.7839 19.747 18.473C19.1666 18.1621 18.5184 17.9996 17.86 18H2C1.46957 18 0.960859 18.2107 0.585786 18.5858C0.210714 18.9609 0 19.4696 0 20V32C0 33.0609 0.421427 34.0783 1.17157 34.8284C1.92172 35.5786 2.93913 36 4 36H23.278C24.1332 36.0002 24.9786 35.8176 25.7575 35.4644C26.5363 35.1111 27.2307 34.5955 27.794 33.952L40 20L37.096 19.032C36.1459 18.7153 35.1316 18.6416 34.1457 18.8177C33.1598 18.9938 32.2337 19.414 31.452 20.04ZM26.806 18C28.3973 18 29.9234 17.3679 31.0486 16.2426C32.1739 15.1174 32.806 13.5913 32.806 12C32.806 6.584 26.806 0 26.806 0C26.806 0 20.806 6.542 20.806 12C20.806 13.5913 21.4381 15.1174 22.5634 16.2426C23.6886 17.3679 25.2147 18 26.806 18Z" fill="#E00000" fill-opacity="0.6"/>
</svg>
