<svg width="32" height="32" viewBox="0 0 32 32" fill="none" xmlns="http://www.w3.org/2000/svg">
<g id="call">
<mask id="mask0_1463_2707" style="mask-type:alpha" maskUnits="userSpaceOnUse" x="0" y="0" width="32" height="32">
<rect id="Bounding box" width="32" height="32" fill="#D9D9D9"/>
</mask>
<g mask="url(#mask0_1463_2707)">
<path id="call_2" d="M25.275 27C22.8444 27 20.4382 26.475 18.0562 25.425C15.6743 24.375 13.5111 22.8778 11.5667 20.9333C9.62222 18.9889 8.125 16.8306 7.075 14.4583C6.025 12.0861 5.5 9.675 5.5 7.225V6H12.3833L13.4625 11.8625L10.1375 15.2167C10.5653 15.975 11.0417 16.6944 11.5667 17.375C12.0917 18.0556 12.6556 18.6875 13.2583 19.2708C13.8222 19.8347 14.4396 20.3743 15.1104 20.8896C15.7812 21.4049 16.5056 21.8861 17.2833 22.3333L20.6667 18.95L26.5 20.1458V27H25.275ZM9.02917 13L10.9542 11.075L10.4583 8.33333H7.8625C7.95972 9.20833 8.10556 10.0299 8.3 10.7979C8.49444 11.566 8.7375 12.3 9.02917 13ZM19.4708 23.4417C20.2486 23.7722 21.0312 24.0347 21.8188 24.2292C22.6062 24.4236 23.3889 24.55 24.1667 24.6083V22.0417L21.425 21.4875L19.4708 23.4417Z" fill="white"/>
</g>
</g>
</svg>
