<?xml version="1.0" standalone="no"?>
<!DOCTYPE svg PUBLIC "-//W3C//DTD SVG 1.0//EN" "http://www.w3.org/TR/2001/REC-SVG-20010904/DTD/svg10.dtd">
<svg xmlns="http://www.w3.org/2000/svg" xmlns:xlink="http://www.w3.org/1999/xlink" id="body_1" width="31" height="27">

<g transform="matrix(1.125 0 0 1.125 0.31249988 -0)">
    <path d="M3.63741 5.17565L2.16166 5.17565L0 2.98435L1.47575 1.52348L2.90993 2.94261L5.84065 0L7.3164 1.48174L3.63741 5.17565zM10.3718 2.08696L27 2.08696L27 4.17391L10.3718 4.17391L10.3718 2.08696zM10.3718 8.34783L27 8.34783L27 10.4348L10.3718 10.4348L10.3718 8.34783zM27 14.6087L10.3718 14.6087L10.3718 16.6957L27 16.6957L27 14.6087zM10.3718 20.8696L27 20.8696L27 22.9565L10.3718 22.9565L10.3718 20.8696zM2.16166 11.4365L3.63741 11.4365L7.3164 7.74261L5.84065 6.28174L2.90993 9.22435L1.47575 7.78435L0 9.26609L2.16166 11.4365zM3.63741 17.7183L2.16166 17.7183L0 15.5478L1.47575 14.0661L2.90993 15.5061L5.84065 12.5426L7.3164 14.0243L3.63741 17.7183zM2.16166 24L3.63741 24L7.3164 20.3061L5.84065 18.8243L2.90993 21.7878L1.47575 20.3478L0 21.8087L2.16166 24z" stroke="none" fill="#334790" fill-rule="nonzero" />
</g>
</svg>