<svg width="48" height="48" viewBox="0 0 48 48" fill="none" xmlns="http://www.w3.org/2000/svg">
<g id="demography">
<mask id="mask0_1497_1408" style="mask-type:alpha" maskUnits="userSpaceOnUse" x="0" y="0" width="48" height="48">
<rect id="Bounding box" width="48" height="48" fill="#D9D9D9"/>
</mask>
<g mask="url(#mask0_1497_1408)">
<path id="demography_2" d="M36 36C36.8333 36 37.5417 35.7083 38.125 35.125C38.7083 34.5417 39 33.8333 39 33C39 32.1667 38.7083 31.4583 38.125 30.875C37.5417 30.2917 36.8333 30 36 30C35.1667 30 34.4583 30.2917 33.875 30.875C33.2917 31.4583 33 32.1667 33 33C33 33.8333 33.2917 34.5417 33.875 35.125C34.4583 35.7083 35.1667 36 36 36ZM36 42C37 42 37.9333 41.7667 38.8 41.3C39.6667 40.8333 40.3833 40.1833 40.95 39.35C40.1833 38.8833 39.3833 38.5417 38.55 38.325C37.7167 38.1083 36.8667 38 36 38C35.1333 38 34.2833 38.1083 33.45 38.325C32.6167 38.5417 31.8167 38.8833 31.05 39.35C31.6167 40.1833 32.3333 40.8333 33.2 41.3C34.0667 41.7667 35 42 36 42ZM6 42V6H42V23.4C41.3667 23.1 40.7167 22.8417 40.05 22.625C39.3833 22.4083 38.7 22.25 38 22.15V10H10V38H22.1C22.2 38.7333 22.3583 39.4333 22.575 40.1C22.7917 40.7667 23.05 41.4 23.35 42H6ZM10 38V10V22.15V22V38ZM14 34H22.15C22.25 33.3 22.4083 32.6167 22.625 31.95C22.8417 31.2833 23.0833 30.6333 23.35 30H14V34ZM14 26H26.2C27.2667 25 28.4583 24.1667 29.775 23.5C31.0917 22.8333 32.5 22.3833 34 22.15V22H14V26ZM14 18H34V14H14V18ZM36 46C33.2333 46 30.875 45.025 28.925 43.075C26.975 41.125 26 38.7667 26 36C26 33.2333 26.975 30.875 28.925 28.925C30.875 26.975 33.2333 26 36 26C38.7667 26 41.125 26.975 43.075 28.925C45.025 30.875 46 33.2333 46 36C46 38.7667 45.025 41.125 43.075 43.075C41.125 45.025 38.7667 46 36 46Z" fill="black" fill-opacity="0.6"/>
</g>
</g>
</svg>
