<svg width="31" height="31" viewBox="0 0 31 31" fill="none" xmlns="http://www.w3.org/2000/svg">
<path fill-rule="evenodd" clip-rule="evenodd" d="M29.8878 15.3326L15.5471 0.944885L1.11389 15.331C1.03619 15.4059 0.974173 15.4954 0.931456 15.5945C0.88874 15.6936 0.866179 15.8001 0.865093 15.908C0.864006 16.0159 0.884414 16.1229 0.925126 16.2228C0.965837 16.3227 1.02604 16.4135 1.10222 16.4899C1.17839 16.5663 1.26902 16.6268 1.36881 16.6678C1.4686 16.7087 1.57556 16.7295 1.68344 16.7287C1.79132 16.7279 1.89796 16.7056 1.99715 16.6632C2.09634 16.6208 2.18608 16.559 2.26114 16.4815L4.12502 14.6241V29.3125C4.12502 29.528 4.21062 29.7347 4.36299 29.887C4.51537 30.0394 4.72203 30.125 4.93752 30.125H12.25C12.4655 30.125 12.6722 30.0394 12.8245 29.887C12.9769 29.7347 13.0625 29.528 13.0625 29.3125V22.2113C13.0625 21.9958 13.1481 21.7891 13.3005 21.6367C13.4529 21.4844 13.6595 21.3988 13.875 21.3988H17.125C17.3405 21.3988 17.5472 21.4844 17.6995 21.6367C17.8519 21.7891 17.9375 21.9958 17.9375 22.2113V29.3125C17.9375 29.528 18.0231 29.7347 18.1755 29.887C18.3279 30.0394 18.5345 30.125 18.75 30.125H26.0625C26.278 30.125 26.4847 30.0394 26.637 29.887C26.7894 29.7347 26.875 29.528 26.875 29.3125V14.6119L28.7373 16.4807C28.8126 16.5562 28.9022 16.6162 29.0007 16.6571C29.0993 16.6981 29.2049 16.7192 29.3117 16.7193C29.4184 16.7194 29.5241 16.6985 29.6227 16.6578C29.7214 16.6171 29.811 16.5573 29.8865 16.4819C29.9621 16.4065 30.022 16.317 30.063 16.2185C30.1039 16.1199 30.1251 16.0142 30.1252 15.9075C30.1253 15.8008 30.1044 15.6951 30.0637 15.5965C30.0229 15.4978 29.9631 15.4082 29.8878 15.3326ZM25.25 12.9813L15.5431 3.24264L5.75002 13.004V28.5H11.4375V22.2113C11.4375 21.5648 11.6943 20.9448 12.1514 20.4877C12.6086 20.0306 13.2286 19.7738 13.875 19.7738H17.125C17.7715 19.7738 18.3915 20.0306 18.8486 20.4877C19.3057 20.9448 19.5625 21.5648 19.5625 22.2113V28.5H25.25V12.9813Z" fill="#334790"/>
</svg>
