<svg width="28" height="28" viewBox="0 0 28 28" fill="none" xmlns="http://www.w3.org/2000/svg">
<g id="fluent:open-16-filled">
<path id="Vector" d="M7.8125 5.625C6.605 5.625 5.625 6.605 5.625 7.8125V19.1875C5.625 20.395 6.605 21.375 7.8125 21.375H19.1875C20.395 21.375 21.375 20.395 21.375 19.1875V16.5625C21.375 16.2144 21.5133 15.8806 21.7594 15.6344C22.0056 15.3883 22.3394 15.25 22.6875 15.25C23.0356 15.25 23.3694 15.3883 23.6156 15.6344C23.8617 15.8806 24 16.2144 24 16.5625V19.1875C24 20.4639 23.493 21.6879 22.5905 22.5905C21.6879 23.493 20.4639 24 19.1875 24H7.8125C6.53615 24 5.31207 23.493 4.40955 22.5905C3.50703 21.6879 3 20.4639 3 19.1875V7.8125C3 6.53615 3.50703 5.31207 4.40955 4.40955C5.31207 3.50703 6.53615 3 7.8125 3H10.4375C10.7856 3 11.1194 3.13828 11.3656 3.38442C11.6117 3.63056 11.75 3.9644 11.75 4.3125C11.75 4.6606 11.6117 4.99444 11.3656 5.24058C11.1194 5.48672 10.7856 5.625 10.4375 5.625H7.8125ZM13.5 4.3125C13.5 3.9644 13.6383 3.63056 13.8844 3.38442C14.1306 3.13828 14.4644 3 14.8125 3H22.6875C23.0356 3 23.3694 3.13828 23.6156 3.38442C23.8617 3.63056 24 3.9644 24 4.3125V12.1875C24 12.5356 23.8617 12.8694 23.6156 13.1156C23.3694 13.3617 23.0356 13.5 22.6875 13.5C22.3394 13.5 22.0056 13.3617 21.7594 13.1156C21.5133 12.8694 21.375 12.5356 21.375 12.1875V7.48175L15.74 13.1168C15.6189 13.242 15.474 13.342 15.3138 13.4107C15.1537 13.4794 14.9814 13.5155 14.8072 13.5169C14.6329 13.5184 14.4601 13.4851 14.2988 13.419C14.1375 13.3529 13.991 13.2554 13.8679 13.1321C13.7447 13.0088 13.6473 12.8622 13.5814 12.7009C13.5155 12.5396 13.4823 12.3667 13.4839 12.1925C13.4855 12.0182 13.5218 11.846 13.5907 11.6859C13.6595 11.5258 13.7596 11.381 13.885 11.26L19.52 5.625H14.8125C14.4644 5.625 14.1306 5.48672 13.8844 5.24058C13.6383 4.99444 13.5 4.6606 13.5 4.3125Z" fill="#334790"/>
</g>
</svg>
