<?xml version="1.0" standalone="no"?>
<!DOCTYPE svg PUBLIC "-//W3C//DTD SVG 1.0//EN" "http://www.w3.org/TR/2001/REC-SVG-20010904/DTD/svg10.dtd">
<svg xmlns="http://www.w3.org/2000/svg" xmlns:xlink="http://www.w3.org/1999/xlink" id="body_1" width="21" height="28">

<g transform="matrix(0.875 0 0 0.8484849 0 0)">
	<g transform="matrix(1.32 0 0 1.32 0.1199999 -0)">
        <path d="M11.7763 2.12133C 10.9542 1.57635 9.98802 1.28571 9 1.28571C 7.6752 1.28571 6.40386 1.80778 5.46588 2.73831C 4.52776 3.66899 4 4.9321 4 6.25C 4 7.23273 4.29377 8.19307 4.84368 9.00954C 5.39356 9.82596 6.17471 10.4617 7.08788 10.8369C 8.00102 11.2122 9.00558 11.3103 9.97471 11.119C 10.9439 10.9278 11.8346 10.4556 12.5341 9.76169C 13.2337 9.06768 13.7105 8.18298 13.9038 7.21923C 14.097 6.25547 13.9978 5.25654 13.6189 4.34895C 13.2399 3.44139 12.5985 2.66633 11.7763 2.12133zM5.77616 1.47007C 6.73008 0.837743 7.85199 0.5 9 0.5C 10.5395 0.5 12.0152 1.10676 13.1026 2.18554C 14.1899 3.26419 14.8 4.7263 14.8 6.25C 14.8 7.38635 14.4604 8.49751 13.8236 9.443C 13.1867 10.3885 12.2811 11.1261 11.2209 11.5618C 10.1606 11.9975 8.9936 12.1115 7.86773 11.8894C 6.74188 11.6672 5.70826 11.1189 4.89737 10.3145C 4.08652 9.51004 3.53478 8.48564 3.3113 7.37102C 3.08781 6.25642 3.20248 5.10106 3.64096 4.05087C 4.07945 3.00065 4.8223 2.10236 5.77616 1.47007zM17.5 24.5L16.7 24.5L16.7 20.5357C 16.7 19.2178 16.1722 17.9547 15.2341 17.024C 14.2961 16.0935 13.0248 15.5714 11.7 15.5714L11.7 15.5714L6.3 15.5714C 4.9752 15.5714 3.70386 16.0935 2.76588 17.024C 1.82776 17.9547 1.3 19.2178 1.3 20.5357L1.3 20.5357L1.3 24.5L0.5 24.5L0.5 20.5357C 0.5 19.012 1.11009 17.5499 2.19737 16.4713C 3.28478 15.3925 4.76046 14.7857 6.3 14.7857L6.3 14.7857L11.7 14.7857C 13.2395 14.7857 14.7152 15.3925 15.8026 16.4713C 16.8899 17.5499 17.5 19.012 17.5 20.5357L17.5 20.5357L17.5 24.5z" stroke="#334790" stroke-width="1" fill="#334790" fill-rule="nonzero" />
	</g>
</g>
</svg>