<svg width="39" height="30" viewBox="0 0 39 30" fill="none" xmlns="http://www.w3.org/2000/svg">
<path d="M37.3898 18.6644C36.9797 18.3486 36.5021 18.132 35.9943 18.0316C35.4866 17.9311 34.9624 17.9495 34.463 18.0852L32.5024 18.5364C36.6286 14.996 38.7188 11.5014 38.7188 8.12501C38.7188 4.14486 35.5195 0.906264 31.5886 0.906264C30.4028 0.896785 29.2335 1.18353 28.1866 1.74049C27.1397 2.29744 26.2485 3.10698 25.5938 4.09564C24.939 3.10698 24.0478 2.29744 23.0009 1.74049C21.954 1.18353 20.7847 0.896785 19.5989 0.906264C15.668 0.906264 12.4688 4.14486 12.4688 8.12501C12.4688 10.0692 13.143 11.9706 14.5704 14.0313C13.4165 14.0742 12.3219 14.5532 11.5073 15.3717L7.60266 19.2813H2.625C2.10286 19.2813 1.6021 19.4887 1.23288 19.8579C0.863671 20.2271 0.65625 20.7279 0.65625 21.25V27.8125C0.65625 28.3347 0.863671 28.8354 1.23288 29.2046C1.6021 29.5738 2.10286 29.7813 2.625 29.7813H19.6875C19.7428 29.7816 19.7979 29.775 19.8516 29.7616L30.3516 27.1366C30.3851 27.1279 30.418 27.1169 30.45 27.1038L36.8189 24.3902L36.855 24.3738C37.3681 24.1173 37.8075 23.7344 38.1318 23.2611C38.4561 22.7879 38.6546 22.2399 38.7086 21.6688C38.7626 21.0977 38.6703 20.5222 38.4405 19.9966C38.2106 19.471 37.8507 19.0125 37.3948 18.6644H37.3898ZM19.5989 2.21876C20.7463 2.20443 21.8719 2.53274 22.8317 3.16169C23.7915 3.79064 24.5418 4.69163 24.9867 5.74939C25.0362 5.86975 25.1203 5.9727 25.2284 6.04515C25.3364 6.1176 25.4636 6.15629 25.5938 6.15629C25.7239 6.15629 25.8511 6.1176 25.9591 6.04515C26.0672 5.9727 26.1513 5.86975 26.2008 5.74939C26.6457 4.69163 27.396 3.79064 28.3558 3.16169C29.3156 2.53274 30.4412 2.20443 31.5886 2.21876C34.7419 2.21876 37.4062 4.92415 37.4062 8.12501C37.4062 11.6146 34.7599 15.3438 29.5411 19.2173L26.373 19.9375C26.7224 19.3402 26.9064 18.6607 26.9062 17.9688C26.9062 16.9245 26.4914 15.923 25.753 15.1845C25.0146 14.4461 24.013 14.0313 22.9688 14.0313H16.1913C14.5507 11.8985 13.7812 10.0117 13.7812 8.12501C13.7812 4.92415 16.4456 2.21876 19.5989 2.21876ZM1.96875 27.8125V21.25C1.96875 21.076 2.03789 20.909 2.16096 20.786C2.28403 20.6629 2.45095 20.5938 2.625 20.5938H7.21875V28.4688H2.625C2.45095 28.4688 2.28403 28.3996 2.16096 28.2766C2.03789 28.1535 1.96875 27.9866 1.96875 27.8125ZM36.2791 23.1909L29.9775 25.8766L19.6071 28.4688H8.53125V20.2099L12.4359 16.3052C12.7398 15.9994 13.1013 15.757 13.4995 15.592C13.8977 15.427 14.3247 15.3426 14.7558 15.3438H22.9688C23.6649 15.3438 24.3326 15.6203 24.8249 16.1126C25.3172 16.6049 25.5938 17.2726 25.5938 17.9688C25.5938 18.665 25.3172 19.3326 24.8249 19.8249C24.3326 20.3172 23.6649 20.5938 22.9688 20.5938H18.375C18.201 20.5938 18.034 20.6629 17.911 20.786C17.7879 20.909 17.7188 21.076 17.7188 21.25C17.7188 21.4241 17.7879 21.591 17.911 21.7141C18.034 21.8371 18.201 21.9063 18.375 21.9063H23.625C23.6747 21.9065 23.7242 21.901 23.7727 21.8899L34.7648 19.3617H34.7911C35.2836 19.2311 35.8071 19.287 36.2609 19.5187C36.7148 19.7504 37.067 20.1416 37.2501 20.6172C37.4332 21.0927 37.4341 21.6191 37.2528 22.0954C37.0715 22.5716 36.7206 22.9641 36.2677 23.1974L36.2791 23.1909Z" fill="#334790"/>
</svg>
